<?xml version="1.0" encoding="utf-8"?>
<!-- Generator: Adobe Illustrator 27.9.0, SVG Export Plug-In . SVG Version: 6.00 Build 0)  -->
<svg version="1.1" id="圖層_1" xmlns="http://www.w3.org/2000/svg" xmlns:xlink="http://www.w3.org/1999/xlink" x="0px" y="0px"
	 viewBox="0 0 1080 1080" style="enable-background:new 0 0 1080 1080;" xml:space="preserve">
<style type="text/css">
	.st0{fill:#10B981;}
</style>
<g>
	<path class="st0" d="M216.51,413.98c0.47-0.47,1.23-0.46,1.7,0.01c7.03,7.05,13.98,14.01,20.93,20.97
		c14.2,14.22,28.53,28.3,42.55,42.69c11.39,11.7,19.04,25.58,22.33,41.68c1.83,8.93,2.22,17.95,1.46,27.04
		c-0.97,11.65-3.94,22.71-9.31,33.12c-4.56,8.84-10.52,16.64-17.58,23.62c-4.26,4.21-12,11.82-14.58,14.36
		c-0.48,0.47-1.24,0.46-1.71-0.02l-72.87-74.69c-0.43-0.44-0.46-1.13-0.08-1.6l26.01-32.24c0.45-0.56,1.29-0.6,1.79-0.1l41,40.94
		c0.69,0.69,1.87,0.32,2.04-0.64c0.21-1.19,0.45-2.58,0.55-3.48c0.84-7.75,0.22-15.34-2.62-22.67c-2.07-5.36-35.34-41.1-41.4-47.58
		c-0.5-0.53-1.36-0.5-1.82,0.06c-5.43,6.68-34.54,42.49-39.05,48.11c-2.36,2.95-3.48,6.39-3.99,10.07
		c-1.38,9.95-0.03,19.45,4.82,28.34c2.14,3.92,4.93,7.33,8.07,10.47c9.74,9.72,19.43,19.51,29.25,29.15
		c7.39,7.26,12.24,15.84,13.74,26.12c2.16,14.81-2.1,27.65-12.37,38.52c-0.05,0.06-0.15,0.07-0.31,0.14
		c-0.29-0.27-0.62-0.56-0.93-0.86c-20.33-20.29-40.64-40.61-60.99-60.88c-6.88-6.85-12.79-14.39-17.26-23.04
		c-4.39-8.5-7.2-17.48-8.46-26.97c-1.01-7.62-1.14-15.27-0.43-22.9c1.58-17.05,7.71-32.33,18.44-45.7c2.54-3.17,5.25-6.24,8.11-9.11
		C174.53,455.9,195.52,434.95,216.51,413.98C216.5,413.99,216.51,413.98,216.51,413.98z"/>
	<g>
		<path d="M391.6,512.24V422.2h53.62v9.15h-42.98v30.18h40.63v9.15h-40.63v32.41h46.08v9.15H391.6z"/>
		<path d="M568.73,513.42c-4.49,0.66-7.95,0.41-10.36-0.74c-2.41-1.15-4.07-3.23-4.98-6.22c-0.91-2.99-1.36-6.92-1.36-11.78v-17.19
			c0-7.5-1.03-12.94-3.09-16.3c-2.06-3.36-5.48-5.04-10.27-5.04c-3.13,0-6.31,0.8-9.52,2.41c-3.22,1.61-5.91,4.11-8.07,7.51
			c-2.16,3.4-3.25,7.82-3.25,13.27v32.9h-10.21v-34.76c0-7.5-1.01-12.94-3.03-16.3c-2.02-3.36-5.42-5.04-10.2-5.04
			c-2.97,0-5.99,0.73-9.06,2.2c-3.07,1.46-5.69,3.75-7.85,6.86c-2.16,3.11-3.41,7.14-3.74,12.09v34.94h-10.14v-43.23
			c0-3.59-0.62-6.72-1.86-9.4c-1.24-2.68-2.58-5.22-4.02-7.61l10.2-3.22c1.11,1.69,2.13,3.41,3.06,5.16
			c0.93,1.75,1.54,3.64,1.82,5.66c1.86-3.67,5.02-6.62,9.49-8.84c4.47-2.23,9.22-3.34,14.26-3.34c5.03,0,9.17,1.13,12.43,3.4
			c3.26,2.27,5.63,5.85,7.11,10.76l0.74-1.42c1.15-2.56,2.97-4.78,5.44-6.68c2.47-1.9,5.33-3.38,8.57-4.45
			c3.24-1.07,6.57-1.61,9.99-1.61c7.17,0,12.53,2.36,16.08,7.08c3.55,4.72,5.32,12.32,5.32,22.79v15.15c0,3.13,0.09,5.71,0.28,7.73
			c0.19,2.02,0.79,3.43,1.82,4.24c1.03,0.8,2.82,0.96,5.38,0.46L568.73,513.42z"/>
		<path d="M610.72,513.61c-6.56,0-12.29-1.37-17.19-4.11c-4.91-2.74-8.73-6.59-11.47-11.53c-2.74-4.95-4.11-10.72-4.11-17.32
			c0-6.64,1.36-12.45,4.08-17.44c2.72-4.99,6.54-8.86,11.47-11.63c4.93-2.76,10.65-4.14,17.16-4.14c6.47,0,12.12,1.38,16.95,4.14
			c4.82,2.76,8.58,6.62,11.26,11.57s4.02,10.74,4.02,17.38c0,6.6-1.34,12.38-4.02,17.35c-2.68,4.97-6.43,8.83-11.26,11.6
			C622.78,512.22,617.15,513.61,610.72,513.61z M610.72,505.07c6.52,0,11.75-2.24,15.71-6.71c3.96-4.47,5.94-10.38,5.94-17.72
			c0-7.38-1.99-13.31-5.97-17.78c-3.98-4.47-9.23-6.71-15.74-6.71c-6.64,0-12,2.26-16.08,6.77c-4.08,4.52-6.12,10.46-6.12,17.84
			c0,7.3,2.04,13.17,6.12,17.63S604.04,505.07,610.72,505.07z"/>
		<path d="M680.92,512.74c-7.17,0-12.39-1.5-15.65-4.51c-3.26-3.01-4.89-7.85-4.89-14.53v-38.28h-12.55v-6.62h12.86v-16.82
			l9.83-2.91v19.73h20.84v6.62h-20.84v38.41c0,3.88,0.93,6.69,2.78,8.44c1.86,1.75,4.78,2.63,8.78,2.63c0.95,0,2.17-0.12,3.68-0.37
			c1.51-0.25,3.02-0.56,4.55-0.93c1.52-0.37,2.76-0.74,3.71-1.11l1.17,7.61c-1.94,0.66-4.36,1.27-7.27,1.82
			C685.03,512.46,682.69,512.74,680.92,512.74z"/>
		<path d="M705.47,435.68v-11.07h10.88v11.07H705.47z M722.17,512.55c-2.93,0-5.65-0.56-8.16-1.67c-2.52-1.11-4.54-2.95-6.06-5.5
			c-1.53-2.56-2.29-6-2.29-10.33v-46.26h10.2v45.95c0,4.33,0.76,7.11,2.29,8.35c1.53,1.24,3.34,1.86,5.44,1.86
			c0.95,0,2.19-0.13,3.71-0.4c1.52-0.27,2.82-0.61,3.9-1.02l1.24,6.86c-1.53,0.62-3.26,1.13-5.19,1.55
			C725.3,512.35,723.61,512.55,722.17,512.55z"/>
		<path d="M769.17,513.61c-6.56,0-12.29-1.37-17.19-4.11c-4.91-2.74-8.73-6.59-11.47-11.53c-2.74-4.95-4.11-10.72-4.11-17.32
			c0-6.64,1.36-12.45,4.08-17.44c2.72-4.99,6.54-8.86,11.47-11.63c4.93-2.76,10.65-4.14,17.16-4.14c6.47,0,12.12,1.38,16.95,4.14
			c4.82,2.76,8.58,6.62,11.26,11.57s4.02,10.74,4.02,17.38c0,6.6-1.34,12.38-4.02,17.35c-2.68,4.97-6.43,8.83-11.26,11.6
			C781.23,512.22,775.6,513.61,769.17,513.61z M769.17,505.07c6.52,0,11.75-2.24,15.71-6.71c3.96-4.47,5.94-10.38,5.94-17.72
			c0-7.38-1.99-13.31-5.97-17.78c-3.98-4.47-9.23-6.71-15.74-6.71c-6.64,0-12,2.26-16.08,6.77c-4.08,4.52-6.12,10.46-6.12,17.84
			c0,7.3,2.04,13.17,6.12,17.63S762.49,505.07,769.17,505.07z"/>
		<path d="M876.66,513.42c-4.49,0.66-7.92,0.41-10.27-0.74c-2.35-1.15-3.96-3.23-4.82-6.22c-0.87-2.99-1.3-6.92-1.3-11.78v-17.19
			c0-7.5-1.03-12.94-3.09-16.3c-2.06-3.36-5.48-5.04-10.27-5.04c-2.97,0-5.99,0.73-9.06,2.2c-3.07,1.46-5.69,3.75-7.85,6.86
			c-2.17,3.11-3.41,7.14-3.74,12.09v34.94h-10.14v-43.23c0-3.59-0.62-6.72-1.86-9.4c-1.24-2.68-2.58-5.22-4.02-7.61l10.2-3.22
			c1.11,1.69,2.13,3.41,3.06,5.16c0.93,1.75,1.54,3.64,1.82,5.66c1.86-3.67,5.02-6.62,9.49-8.84c4.47-2.23,9.23-3.34,14.26-3.34
			c7.17,0,12.53,2.36,16.08,7.08c3.55,4.72,5.32,12.32,5.32,22.79v15.15c0,3.13,0.06,5.71,0.18,7.73c0.12,2.02,0.68,3.43,1.67,4.24
			s2.76,0.96,5.32,0.46L876.66,513.42z"/>
		<path d="M391.6,656.27v-90.05h53.62v9.15h-42.98v30.18h40.63v9.15h-40.63v32.41h46.08v9.15H391.6z"/>
		<path d="M480.6,657.63c-4.78,0-9.07-0.64-12.86-1.92c-3.79-1.28-6.84-2.56-9.15-3.83l3.09-8.72c2.39,1.81,5.25,3.26,8.57,4.33
			c3.32,1.07,6.52,1.61,9.62,1.61c3.42,0,6.34-0.69,8.75-2.07c2.41-1.38,3.62-3.66,3.62-6.83c0-2.18-0.81-4.03-2.44-5.53
			c-1.63-1.51-3.72-2.86-6.28-4.05c-2.56-1.2-5.27-2.41-8.13-3.65c-2.87-1.24-5.58-2.65-8.13-4.24c-2.56-1.59-4.62-3.52-6.18-5.78
			c-1.57-2.27-2.33-5.05-2.29-8.35c0.08-5.28,2.02-9.45,5.81-12.52c3.79-3.07,8.86-4.61,15.21-4.61c4.04,0,7.74,0.49,11.1,1.48
			c3.36,0.99,6.34,2.17,8.94,3.53l-2.72,8.35c-2.6-1.4-5.37-2.53-8.32-3.37c-2.95-0.84-5.74-1.27-8.38-1.27
			c-3.59,0-6.42,0.71-8.5,2.13c-2.08,1.42-3.12,3.41-3.12,5.97c0,1.94,0.81,3.61,2.44,5.01c1.63,1.4,3.72,2.69,6.28,3.87
			c2.56,1.18,5.27,2.38,8.13,3.62c2.87,1.24,5.57,2.67,8.1,4.3c2.54,1.63,4.59,3.58,6.15,5.84c1.57,2.27,2.31,5.05,2.23,8.35
			c-0.12,5.44-2.11,9.86-5.97,13.27C492.3,655.93,487.11,657.63,480.6,657.63z"/>
		<path d="M539.91,656.76c-7.17,0-12.39-1.51-15.65-4.52c-3.26-3.01-4.89-7.85-4.89-14.53v-38.28h-12.55v-6.62h12.86v-16.82
			l9.83-2.91v19.73h20.84v6.62h-20.84v38.41c0,3.88,0.93,6.69,2.78,8.44c1.86,1.75,4.78,2.63,8.78,2.63c0.95,0,2.17-0.12,3.68-0.37
			c1.51-0.25,3.02-0.56,4.55-0.93c1.52-0.37,2.76-0.74,3.71-1.11l1.17,7.61c-1.94,0.66-4.36,1.27-7.27,1.82
			C544.02,656.49,541.68,656.76,539.91,656.76z"/>
		<path d="M564.46,579.7v-11.07h10.88v11.07H564.46z M581.16,656.58c-2.93,0-5.65-0.56-8.16-1.67c-2.52-1.11-4.54-2.95-6.06-5.5
			c-1.53-2.56-2.29-6-2.29-10.33v-46.26h10.2v45.95c0,4.33,0.76,7.11,2.29,8.35c1.53,1.24,3.34,1.86,5.44,1.86
			c0.95,0,2.19-0.13,3.71-0.4c1.52-0.27,2.82-0.61,3.9-1.02l1.24,6.87c-1.53,0.62-3.26,1.13-5.19,1.55
			C584.29,656.37,582.6,656.58,581.16,656.58z"/>
		<path d="M705.9,657.44c-4.49,0.66-7.95,0.41-10.36-0.74c-2.41-1.15-4.07-3.23-4.98-6.22c-0.91-2.99-1.36-6.92-1.36-11.78v-17.19
			c0-7.5-1.03-12.94-3.09-16.3c-2.06-3.36-5.48-5.04-10.27-5.04c-3.13,0-6.31,0.8-9.52,2.41c-3.22,1.61-5.91,4.11-8.07,7.51
			c-2.16,3.4-3.25,7.82-3.25,13.27v32.9h-10.2v-34.76c0-7.5-1.01-12.94-3.03-16.3c-2.02-3.36-5.42-5.04-10.2-5.04
			c-2.97,0-5.99,0.73-9.06,2.19c-3.07,1.46-5.69,3.75-7.85,6.87c-2.17,3.11-3.41,7.14-3.74,12.09v34.94h-10.14v-43.23
			c0-3.59-0.62-6.72-1.86-9.4c-1.24-2.68-2.58-5.22-4.02-7.61l10.2-3.22c1.11,1.69,2.13,3.41,3.06,5.16
			c0.93,1.75,1.54,3.64,1.82,5.66c1.86-3.67,5.02-6.62,9.49-8.84c4.47-2.23,9.23-3.34,14.26-3.34c5.03,0,9.17,1.13,12.43,3.4
			c3.26,2.27,5.63,5.85,7.11,10.76l0.74-1.42c1.15-2.56,2.97-4.78,5.44-6.68c2.47-1.9,5.33-3.38,8.57-4.45
			c3.24-1.07,6.57-1.61,9.99-1.61c7.17,0,12.53,2.36,16.08,7.08c3.55,4.72,5.32,12.32,5.32,22.79v15.15c0,3.13,0.09,5.71,0.28,7.73
			c0.19,2.02,0.79,3.43,1.82,4.24c1.03,0.8,2.82,0.96,5.38,0.46L705.9,657.44z"/>
		<path d="M740.72,657.63c-5.15,0-9.66-1.19-13.51-3.56c-3.86-2.37-6.86-5.69-9-9.96c-2.14-4.27-3.22-9.25-3.22-14.94
			c0-7.54,1.48-14.14,4.45-19.79c2.97-5.65,7.12-10.05,12.46-13.2c5.34-3.15,11.57-4.73,18.71-4.73c4.16,0,8.27,0.48,12.31,1.45
			c4.04,0.97,7.3,2.26,9.77,3.87v41.81c0,2.72,0.71,4.92,2.13,6.59c1.42,1.67,3.29,2.5,5.6,2.5l-2.1,8.84
			c-3.59,0-6.7-0.97-9.34-2.91c-2.64-1.94-4.31-4.47-5.01-7.61c-2.1,3.5-5.28,6.32-9.52,8.44
			C750.2,656.57,745.63,657.63,740.72,657.63z M742.27,649.09c4.08,0,7.64-0.92,10.67-2.75c3.03-1.83,5.39-4.32,7.08-7.45
			c1.69-3.13,2.54-6.68,2.54-10.64v-25.91c-1.28-0.66-3.03-1.18-5.26-1.58c-2.23-0.39-4.52-0.59-6.87-0.59
			c-4.99,0-9.35,1.19-13.08,3.56c-3.73,2.37-6.64,5.68-8.72,9.93c-2.08,4.25-3.12,9.22-3.12,14.91c0,6.14,1.54,11.1,4.61,14.87
			C733.19,647.21,737.24,649.09,742.27,649.09z"/>
		<path d="M816.85,656.76c-7.17,0-12.39-1.51-15.65-4.52c-3.26-3.01-4.89-7.85-4.89-14.53v-38.28h-12.55v-6.62h12.86v-16.82
			l9.83-2.91v19.73h20.84v6.62h-20.84v38.41c0,3.88,0.93,6.69,2.78,8.44c1.86,1.75,4.78,2.63,8.78,2.63c0.95,0,2.17-0.12,3.68-0.37
			c1.51-0.25,3.02-0.56,4.55-0.93c1.52-0.37,2.76-0.74,3.71-1.11l1.17,7.61c-1.94,0.66-4.36,1.27-7.27,1.82
			C820.97,656.49,818.63,656.76,816.85,656.76z"/>
		<path d="M869.42,657.63c-6.56,0-12.29-1.37-17.19-4.11c-4.91-2.74-8.73-6.59-11.47-11.53c-2.74-4.95-4.11-10.72-4.11-17.32
			c0-6.64,1.36-12.45,4.08-17.44c2.72-4.99,6.54-8.86,11.47-11.63c4.93-2.76,10.65-4.14,17.16-4.14c6.47,0,12.12,1.38,16.95,4.14
			c4.82,2.76,8.58,6.62,11.26,11.57c2.68,4.95,4.02,10.74,4.02,17.38c0,6.6-1.34,12.38-4.02,17.35c-2.68,4.97-6.43,8.83-11.26,11.6
			C881.48,656.25,875.86,657.63,869.42,657.63z M869.42,649.09c6.52,0,11.75-2.24,15.71-6.71c3.96-4.47,5.94-10.38,5.94-17.72
			c0-7.38-1.99-13.31-5.97-17.78c-3.98-4.47-9.23-6.71-15.74-6.71c-6.64,0-12,2.26-16.08,6.77c-4.08,4.52-6.12,10.46-6.12,17.84
			c0,7.3,2.04,13.17,6.12,17.63C857.36,646.87,862.74,649.09,869.42,649.09z"/>
		<path d="M916.73,656.27v-43.23c0-3.59-0.62-6.72-1.86-9.4c-1.24-2.68-2.58-5.22-4.02-7.61l10.2-3.22c1.11,1.69,2.12,3.39,3.03,5.1
			c0.91,1.71,1.53,3.56,1.86,5.54c1.65-3.34,4.07-6.17,7.27-8.5c3.19-2.33,6.75-3.49,10.67-3.49c2.56,0,4.5,0.12,5.84,0.37
			c1.34,0.25,2.57,0.54,3.68,0.87l-0.87,8.97c-0.54-0.21-1.51-0.51-2.91-0.9c-1.4-0.39-3.42-0.59-6.06-0.59
			c-4.49,0-8.4,1.68-11.72,5.04c-3.32,3.36-4.98,8.67-4.98,15.93v35.13H916.73z"/>
	</g>
</g>
</svg>
