<?xml version="1.0" encoding="utf-8"?>
<!-- Generator: Adobe Illustrator 26.0.2, SVG Export Plug-In . SVG Version: 6.00 Build 0)  -->
<svg version="1.1" id="圖層_1" xmlns="http://www.w3.org/2000/svg" xmlns:xlink="http://www.w3.org/1999/xlink" x="0px" y="0px"
	 viewBox="0 0 1080 1080" style="enable-background:new 0 0 1080 1080;" xml:space="preserve">
<style type="text/css">
	.st0{fill:#E8C11C;}
	.st1{fill:none;stroke:#E8C11C;stroke-width:7.2203;stroke-miterlimit:10;}
</style>
<g>
	<path class="st0" d="M189.13,66.23v17.63c0,0.76-0.21,1.44-0.65,2.03c-0.86,1.12-2.18,1.68-3.97,1.68c-1.55,0-2.76-0.45-3.64-1.32
		c-0.63-0.63-0.95-1.44-0.95-2.39v-39.2c0-4.62,2.29-6.93,6.92-6.93h25.65c0.82,0,1.53,0.28,2.09,0.86c0.8,0.76,1.19,1.79,1.19,3.08
		c0,1.68-0.58,2.87-1.71,3.58c-0.45,0.3-0.99,0.43-1.57,0.43h-22.13c-0.82,0-1.23,0.41-1.23,1.23v11.69h20.23
		c0.8,0,1.45,0.26,2.01,0.78c0.78,0.76,1.17,1.79,1.17,3.08c0,1.58-0.56,2.7-1.68,3.39c-0.41,0.26-0.91,0.39-1.51,0.39H189.13z"/>
	<path d="M231.55,68.13v15.79c0,0.95-0.32,1.73-0.93,2.37c-0.82,0.86-1.94,1.29-3.34,1.29c-1.66,0-2.89-0.58-3.65-1.72
		c-0.37-0.54-0.56-1.19-0.56-1.94V54.73c0-0.86,0.28-1.6,0.82-2.22c0.8-0.84,1.86-1.25,3.19-1.25c1.7,0,2.87,0.63,3.54,1.9
		c0.28,0.47,0.41,0.99,0.41,1.57v3.45c1.1-1.92,2.22-3.41,3.34-4.46c2.07-1.88,4.53-2.83,7.4-2.83c2.24,0,4.18,0.73,5.8,2.14
		c1.16,1.03,1.75,2.2,1.75,3.5c0,0.95-0.32,1.83-0.95,2.63c-0.88,1.12-2.01,1.68-3.39,1.68c-0.89,0-1.66-0.24-2.26-0.73
		c-0.82-0.63-1.75-0.95-2.83-0.95C236.62,59.16,233.85,62.15,231.55,68.13z"/>
	<path d="M269.34,50.93c4.96,0,9.02,1.64,12.23,4.92c3.34,3.45,5.01,7.96,5.01,13.53c0,4.4-1.03,8.16-3.09,11.33
		c-3.17,4.83-7.9,7.25-14.2,7.25c-5.52,0-9.88-1.94-13.07-5.78c-2.8-3.36-4.21-7.62-4.21-12.84c0-5.57,1.68-10.07,5-13.46
		C260.22,52.58,264.32,50.93,269.34,50.93z M269.25,58.05c-2.78,0-4.96,1.21-6.56,3.62c-1.34,2.01-2.01,4.57-2.01,7.64
		c0,2.35,0.37,4.4,1.12,6.15c1.49,3.45,4.01,5.18,7.55,5.18c2.83,0,5.01-1.17,6.58-3.54c1.32-2.03,1.99-4.62,1.99-7.79
		c0-3.19-0.71-5.8-2.13-7.81C274.19,59.2,272.01,58.05,269.25,58.05z"/>
	<path d="M302.5,56.7c2.09-3.71,5.33-5.57,9.67-5.57c2.22,0,4.16,0.6,5.82,1.81c1.34,0.95,2.31,2.29,2.96,4.03
		c2.46-3.9,6.04-5.83,10.72-5.83c4.12,0,7.14,1.81,9.04,5.44c1.16,2.22,1.73,4.92,1.73,8.11v19.31c0,0.93-0.3,1.72-0.91,2.33
		c-0.82,0.82-1.92,1.25-3.32,1.25c-1.86,0-3.11-0.69-3.78-2.07c-0.21-0.45-0.32-0.95-0.32-1.51V65.5c0-1.53-0.26-2.89-0.78-4.06
		c-0.86-1.9-2.16-2.85-3.91-2.85c-1.6,0-3.09,0.78-4.47,2.39c-1.45,1.73-2.2,3.67-2.2,5.82v17.26c0,0.86-0.28,1.6-0.84,2.24
		c-0.82,0.86-1.92,1.29-3.32,1.29c-1.75,0-3-0.63-3.75-1.88c-0.28-0.45-0.43-1.01-0.43-1.64V65.84c0-1.85-0.28-3.39-0.86-4.64
		c-0.78-1.75-1.98-2.61-3.58-2.61c-1.66,0-3.21,0.88-4.62,2.65c-1.45,1.83-2.16,3.82-2.16,6v16.76c0,0.88-0.26,1.6-0.8,2.2
		c-0.82,0.91-1.96,1.38-3.41,1.38c-1.81,0-3.08-0.67-3.77-1.98c-0.24-0.47-0.37-0.99-0.37-1.6V54.8c0-0.89,0.3-1.66,0.86-2.27
		c0.71-0.76,1.6-1.14,2.7-1.14c2.33,0,3.64,1.16,3.9,3.47L302.5,56.7z"/>
	<path class="st0" d="M382.87,37.73h10.22c6.13,0,11.32,1.34,15.57,4.01c3.21,1.99,5.72,4.7,7.51,8.15
		c1.88,3.62,2.83,7.72,2.83,12.3c0,6.21-1.66,11.43-4.96,15.7c-4.6,5.95-11.67,8.93-21.21,8.93h-9.95c-5.16,0-7.74-2.55-7.74-7.64
		V45.39C375.13,40.28,377.7,37.73,382.87,37.73z M384.34,47.16v30.16c0,1.03,0.54,1.55,1.62,1.55h5.57c4.51,0,8.03-0.76,10.57-2.27
		c4.72-2.83,7.07-7.62,7.07-14.37c0-3.86-0.86-7.16-2.55-9.92c-2.05-3.28-4.9-5.33-8.61-6.13c-1.75-0.37-3.84-0.56-6.26-0.56h-5.78
		C384.88,45.61,384.34,46.12,384.34,47.16z"/>
	<path d="M452.55,55.96l0.19-2.14c0.17-1.79,1.32-2.68,3.52-2.68c1.75,0,2.95,0.67,3.62,1.99c0.21,0.47,0.32,0.97,0.32,1.55v29.32
		c0,0.75-0.17,1.4-0.48,1.96c-0.65,1.08-1.75,1.62-3.28,1.62c-2.13,0-3.36-1.12-3.69-3.32l-0.35-2.27
		c-2.16,3.9-5.87,5.85-11.13,5.85c-5.61,0-9.92-2.26-12.94-6.77c-2.14-3.19-3.22-7.07-3.22-11.63c0-4.31,1.1-8.05,3.3-11.26
		c1.79-2.65,4.1-4.57,6.95-5.78c1.98-0.84,4.05-1.27,6.21-1.27C446.39,51.13,450.07,52.73,452.55,55.96z M451.86,70v-2.61
		c0-2.44-0.89-4.57-2.7-6.38c-1.81-1.85-3.91-2.76-6.3-2.76c-2.76,0-4.98,1.16-6.65,3.45c-1.49,2.03-2.24,4.6-2.24,7.72
		c0,2.67,0.52,4.96,1.57,6.86c1.62,2.91,4.05,4.36,7.27,4.36c1.99,0,3.8-0.75,5.44-2.26C450.65,76.17,451.86,73.37,451.86,70z"/>
	<path d="M481.5,76.67l5.93-21.38c0.73-2.59,2.37-3.9,4.94-3.9c2.61,0,4.29,1.3,5.01,3.9l5.91,21.38l6.17-22.07
		c0.62-2.16,1.9-3.24,3.88-3.24c0.71,0,1.42,0.17,2.13,0.48c1.6,0.75,2.4,1.88,2.4,3.39c0,0.52-0.09,1.06-0.26,1.6L509.2,83.4
		c-0.88,2.78-2.68,4.18-5.44,4.18c-2.89,0-4.77-1.57-5.65-4.66l-5.72-20.17l-5.7,20.17c-0.88,3.09-2.76,4.66-5.65,4.66
		c-2.76,0-4.57-1.4-5.44-4.18l-8.41-26.56c-0.19-0.56-0.26-1.12-0.26-1.68c0-1.42,0.75-2.5,2.26-3.24c0.78-0.37,1.57-0.56,2.29-0.56
		c1.96,0,3.24,1.08,3.86,3.24L481.5,76.67z"/>
	<path d="M532.13,57.23c1.25-1.68,2.72-3.02,4.42-4.01c2.39-1.4,4.9-2.09,7.57-2.09c3.95,0,7.12,1.32,9.49,4.01
		c2.09,2.33,3.15,5.83,3.15,10.5v18.29c0,0.88-0.26,1.62-0.8,2.24c-0.82,0.93-1.99,1.42-3.5,1.42c-1.72,0-2.95-0.6-3.71-1.77
		c-0.35-0.56-0.52-1.17-0.52-1.88V66.58c0-1.92-0.32-3.54-0.93-4.85c-0.97-2.11-2.59-3.15-4.81-3.15c-2.37,0-4.62,1.21-6.77,3.67
		c-1.72,1.92-2.57,3.9-2.57,5.95v15.71c0,0.95-0.3,1.73-0.91,2.37c-0.84,0.86-1.96,1.29-3.36,1.29c-1.72,0-2.96-0.6-3.73-1.77
		c-0.35-0.54-0.54-1.16-0.54-1.88V54.86c0-0.86,0.22-1.6,0.63-2.2c0.62-0.89,1.55-1.34,2.81-1.34c2.01,0,3.22,1.1,3.62,3.28
		L532.13,57.23z"/>
	<path class="st0" d="M601.92,45.87h-14.13c-0.63,0-1.17-0.15-1.64-0.43c-1.14-0.71-1.7-1.9-1.7-3.62c0-1.42,0.43-2.52,1.27-3.32
		c0.56-0.52,1.25-0.78,2.07-0.78h37.53c0.71,0,1.32,0.19,1.85,0.56c1.01,0.76,1.51,1.94,1.51,3.52c0,1.51-0.45,2.63-1.34,3.37
		c-0.56,0.47-1.21,0.69-2.01,0.69H611.2v37.86c0,1.1-0.39,2.01-1.17,2.68c-0.88,0.76-2.05,1.16-3.49,1.16c-1.96,0-3.32-0.63-4.1-1.9
		c-0.35-0.56-0.52-1.19-0.52-1.94V45.87z"/>
	<path d="M649.85,50.93c4.96,0,9.02,1.64,12.23,4.92c3.34,3.45,5.01,7.96,5.01,13.53c0,4.4-1.03,8.16-3.09,11.33
		c-3.17,4.83-7.9,7.25-14.2,7.25c-5.52,0-9.88-1.94-13.07-5.78c-2.8-3.36-4.21-7.62-4.21-12.84c0-5.57,1.68-10.07,5-13.46
		C640.73,52.58,644.83,50.93,649.85,50.93z M649.75,58.05c-2.78,0-4.96,1.21-6.56,3.62c-1.34,2.01-2.01,4.57-2.01,7.64
		c0,2.35,0.37,4.4,1.12,6.15c1.49,3.45,4.01,5.18,7.55,5.18c2.83,0,5.01-1.17,6.58-3.54c1.32-2.03,1.99-4.62,1.99-7.79
		c0-3.19-0.71-5.8-2.13-7.81C654.69,59.2,652.51,58.05,649.75,58.05z"/>
	<path class="st0" d="M704.61,37.73h10.22c6.13,0,11.32,1.34,15.57,4.01c3.21,1.99,5.72,4.7,7.51,8.15
		c1.88,3.62,2.83,7.72,2.83,12.3c0,6.21-1.66,11.43-4.96,15.7c-4.6,5.95-11.67,8.93-21.21,8.93h-9.95c-5.16,0-7.74-2.55-7.74-7.64
		V45.39C696.88,40.28,699.45,37.73,704.61,37.73z M706.09,47.16v30.16c0,1.03,0.54,1.55,1.62,1.55h5.57c4.51,0,8.03-0.76,10.57-2.27
		c4.72-2.83,7.07-7.62,7.07-14.37c0-3.86-0.86-7.16-2.55-9.92c-2.05-3.28-4.9-5.33-8.61-6.13c-1.75-0.37-3.84-0.56-6.26-0.56h-5.78
		C706.63,45.61,706.09,46.12,706.09,47.16z"/>
	<path d="M774.43,81.5c-2.83,4.21-6.88,6.34-12.19,6.34c-4.18,0-7.44-1.51-9.77-4.53c-1.83-2.33-2.74-5.67-2.74-10.05V55.03
		c0-0.88,0.26-1.62,0.8-2.22c0.82-0.95,1.99-1.42,3.5-1.42c1.71,0,2.95,0.6,3.71,1.77c0.35,0.54,0.52,1.17,0.52,1.86v17.41
		c0,1.92,0.3,3.52,0.89,4.79c0.97,2.11,2.57,3.15,4.83,3.15c2.52,0,4.83-1.27,6.95-3.78c1.6-1.9,2.4-3.8,2.4-5.7V55.03
		c0-0.93,0.3-1.72,0.91-2.37c0.8-0.84,1.94-1.27,3.37-1.27c1.72,0,2.95,0.6,3.71,1.77c0.35,0.54,0.54,1.17,0.54,1.86v29.02
		c0,0.88-0.22,1.62-0.63,2.24c-0.62,0.89-1.57,1.34-2.85,1.34c-2.09,0-3.28-1.1-3.58-3.28L774.43,81.5z"/>
	<path d="M805.61,50.93c4.75,0,8.56,1.01,11.43,2.98c1.55,1.08,2.33,2.35,2.33,3.82c0,0.86-0.26,1.64-0.78,2.39
		c-0.73,0.99-1.72,1.49-2.96,1.49c-0.8,0-1.7-0.39-2.68-1.16c-2.24-1.73-4.72-2.59-7.46-2.59c-3.54,0-5.31,1.01-5.31,3.02
		c0,1.17,0.63,2.11,1.9,2.76c0.41,0.19,1.12,0.45,2.13,0.78c5.93,1.81,9.6,3.08,11,3.78c3.65,1.81,5.48,4.72,5.48,8.69
		c0,3.71-1.45,6.54-4.4,8.5c-2.55,1.72-6.02,2.57-10.4,2.57c-5.01,0-9.13-1.14-12.38-3.41c-2.11-1.49-3.15-3.06-3.15-4.66
		c0-0.78,0.24-1.51,0.75-2.24c0.71-0.99,1.64-1.47,2.8-1.47c0.93,0,1.79,0.37,2.59,1.14c2.46,2.35,5.57,3.52,9.34,3.52
		c3.91,0,5.87-1.06,5.87-3.15c0-1.44-0.99-2.63-2.96-3.58c-1.27-0.6-4.32-1.64-9.15-3.13c-5.26-1.58-7.89-4.79-7.89-9.62
		c0-3.77,1.81-6.62,5.42-8.56C799.41,51.56,802.24,50.93,805.61,50.93z"/>
	<path d="M837.75,74.73v9.19c0,1.06-0.35,1.9-1.08,2.54c-0.86,0.75-1.9,1.12-3.15,1.12c-1.85,0-3.11-0.67-3.8-2.01
		c-0.24-0.48-0.37-1.03-0.37-1.64V40.56c0-0.88,0.28-1.62,0.82-2.2c0.82-0.91,1.94-1.36,3.36-1.36c1.77,0,3.04,0.62,3.78,1.85
		c0.3,0.5,0.45,1.08,0.45,1.72v24.48l14.58-12.38c0.99-0.82,2.01-1.23,3.06-1.23c0.99,0,1.86,0.37,2.63,1.1
		c0.93,0.95,1.42,1.99,1.42,3.13s-0.48,2.09-1.45,2.85l-10.35,8.28l12.06,13.24c0.8,0.91,1.21,1.96,1.21,3.11
		c0,1.38-0.52,2.44-1.55,3.21c-0.99,0.75-2.03,1.12-3.15,1.12c-1.27,0-2.35-0.54-3.24-1.64l-11.43-14.15L837.75,74.73z"/>
	<path d="M875.59,74.21c1.17,0,2.31,0.32,3.41,0.99c2.11,1.29,3.15,3.15,3.15,5.61c0,1.7-0.58,3.19-1.77,4.46
		c-1.29,1.42-2.91,2.11-4.87,2.11c-1.14,0-2.2-0.28-3.21-0.86c-2.22-1.27-3.32-3.19-3.32-5.74c0-2.01,0.75-3.67,2.24-4.96
		C872.48,74.75,873.93,74.21,875.59,74.21z"/>
</g>
<path d="M181.83,986.24c5.78,2.78,12.36,5.04,19.74,6.77c7.2,1.69,11.01,9.47,7.57,16.02c-3.95,7.53-4.71,8.59-13.55,27.83
	l-3.25,7.15c-13.44-5.78-25-14.48-34.68-26.12c-9.68-11.63-15.82-24.09-18.43-37.38l-0.21-1.31v41.84c0,5.78-0.84,10.05-2.49,12.79
	c-1.66,2.74-5.09,4.7-10.3,5.85c-5.2,1.16-13.44,1.73-24.71,1.73c-6.65,0-14.89-0.22-24.71-0.65l-6.93-0.21
	c-0.17-0.99-0.56-1.93-0.51-2.88c0.46-8.15-7.79-16.8-16.83-8.65c-4.79,4.32-8.22,6.73-12.68,9.32c-5.63,3.28-12.91,1.1-15.71-4.79
	c-0.41-0.87-0.85-1.79-1.31-2.77c-3.33-7.08-6.36-13.11-9.1-18.09c-0.04-0.08-0.09-0.16-0.13-0.24c-3.67-6.6,5.16-8.06,12.35-11.03
	c3.61-1.49,8.02-3.47,10.6-5.23c6.58-4.51,8.61-8.64,10.56-13.73L25.2,982.3c-6.1-0.04-11.02-5-11.02-11.1v-9.28
	c0-6.14,4.99-7.06,11.13-7.04l64.95,0.19v-11.5H23.54c-6.13,0-11.1-2.3-11.1-8.42v-9.23c0-6.13,4.97-11.1,11.1-11.1h115.48v6.93
	c0,0.05,0,0.1,0,0.15c0.24,7.64,8.29,12.44,15.38,9.6c3.52-1.41,6.81-2.89,9.87-4.43c6.72-3.39,15.27-8.12,25.68-14.2
	c1.16-0.58,2.89-1.59,5.21-3.03c3.61,6.64,6.86,12.35,9.75,17.12c1.4,2.31,3.09,5,5.08,8.07c3.73,5.76,1.43,13.54-4.87,16.26
	l-2.37,1.03c-8.96,4.04-16.83,7.33-23.63,9.86c-0.51,0.19-1.03,0.38-1.55,0.56c-8.81,3.14-10.43,15.11-2.4,19.91
	C177.31,983.94,179.53,985.13,181.83,986.24z M177.13,912.26c-44.12-3.93-87.73-3.37-128.99-4.84c-8.69-0.31-13.67-9.96-8.86-17.21
	l5.71-8.6c2.13-3.2,5.82-5.09,9.66-4.97c46.64,1.42,89.91,3.89,129.83,7.41c8.36,0.74,11.11,5.98,7.29,14.82l-4.42,8.5
	C185.12,910.75,181.17,912.62,177.13,912.26z M88.63,998.16c1.08-0.5,1.63-1.55,1.63-3.15v-29.04
	c-4.11,13.52-7.56,18.33-15.12,31.74C78.9,997.86,87.54,998.67,88.63,998.16z"/>
<path d="M347.58,944.57v6.1h75.54c3.05,0,5.53,2.48,5.53,5.53v-1.52c0,3.05-2.48,5.53-5.53,5.53H225.22c-3.05,0-5.53-2.48-5.53-5.53
	v1.52c0-3.05,2.48-5.53,5.53-5.53h75.54v-6.1h-65.56c-3.05,0-5.53-0.85-5.53-3.9v-1.73c0-3.05,2.48-4.08,5.53-4.08h65.56l0.05-5.06
	h-62.52c-3.05,0-5.58-0.44-5.58-3.5v-3.08c0-3.05,2.48-4.05,5.53-4.05h62.52v-8.25h-70.55c-3.05,0-5.53-0.42-5.53-3.48v-3.03
	c0-3.05,2.48-3.79,5.53-3.79h70.55v-7.58h-62.52c-3.05,0-5.53-0.32-5.53-3.37v-4.55c0-3.05,2.48-5.53,5.53-5.53h62.52v-4.33h46.82
	v4.33h59.49c3.05,0,5.53,2.48,5.53,5.53v3.69c0,3.05,2.48,5.53,5.53,5.53l0,0c3.05,0,5.53,2.48,5.53,5.53v11.92
	c0,3.05-2.48,5.53-5.53,5.53l0,0c-3.05,0-5.53,2.48-5.53,5.53v3.47c0,3.05-2.43,3.5-5.48,3.5h-59.49l-0.05,5.06h65.56
	c3.05,0,5.53,1.03,5.53,4.08v1.73c0,3.05-2.48,3.9-5.53,3.9H347.58z M415.09,1041.27H233.24c-7.48,0-13.55-6.06-13.55-13.55l0,0
	c0-3.05,2.48-2.24,5.53-2.24h197.89c3.05,0,5.53-0.81,5.53,2.24l0,0C428.64,1035.21,422.58,1041.27,415.09,1041.27z M412.6,981.41
	v23.99c0,7.48-6.06,13.55-13.55,13.55H249.28c-7.48,0-13.55-6.06-13.55-13.55v-21.45c0-8.84,7.24-16.08,16.08-16.08h147.24
	C406.53,967.87,412.6,973.93,412.6,981.41z M375.32,976.92h-99.88v10.6h99.88V976.92z M275.44,1004.92h99.88v-10.06h-99.88V1004.92z
	 M368.82,893.03h-21.24v7.58h21.24V893.03z M368.82,910.91h-21.24v8.25h21.24V910.91z"/>
<path d="M567.76,950.8v16.69c0,12.45,10.09,27.37,22.54,27.37h29.27c12.45,0,22.54,5.26,22.54,17.71v0.01
	c0,12.45-10.09,22.54-22.54,22.54H459.61c-12.45,0-22.54-10.09-22.54-22.54v-0.01c0-12.45,10.09-17.71,22.54-17.71h29.27
	c12.45,0,22.54-14.92,22.54-27.37V950.8c0-12.45-10.09-29.83-22.54-29.83h-18c-12.45,0-22.54-2.81-22.54-15.25l0,0
	c0-12.45,10.09-22.54,22.54-22.54H608.3c12.45,0,22.54,10.09,22.54,22.54l0,0c0,12.45-10.09,15.25-22.54,15.25h-18
	C577.85,920.97,567.76,938.35,567.76,950.8z"/>
<path d="M850.85,921.54c0,3.95-3.2,7.15-7.15,7.15h-43.12v9.75h38.79c3.95,0,7.15,3.2,7.15,7.15v24.49c0,3.95-3.2,7.15-7.15,7.15
	h-38.79V987h39.47c3.95,0,7.15,3.2,7.15,7.15v27.3c0,3.95-3.2,7.15-7.15,7.15h-32.32c-3.95,0-7.15,3.2-7.15,7.15l0,0
	c0,3.95-3.2,7.15-7.15,7.15h-34.24c-3.95,0-7.15-3.2-7.15-7.15v-50.41c0-5.92-6.7-9.21-11.46-5.69c-1.95,1.44-3.97,2.89-6.06,4.33
	c-4.27,2.95-10.07,0.58-11.16-4.49c-2.67-12.44-6.26-24.54-10.77-36.28v92.55c0,3.95-3.2,7.15-7.15,7.15h-34.02
	c-3.95,0-7.15-3.2-7.15-7.15v-32.84c0-5.11-5.22-8.52-9.94-6.58c-2.23,0.92-4.12,1.63-5.67,2.14c-0.29-2.89-0.43-5.06-0.43-6.51
	c-0.87-11.41-1.73-20.88-2.6-28.39c-0.61-5.25-1.46-10.51-2.56-15.76c-0.77-3.68,1.38-7.33,4.97-8.43c3.06-0.93,5.55-1.98,7.45-3.13
	c3.1-1.88,5.67-4.48,7.69-7.8c1.88-3.18,3.94-9.86,6.18-20.05c1.81-8.2,2.88-17.08,3.23-26.65c0.14-3.9,3.25-7.04,7.15-7.02
	l38.31,0.16c4.18,0.02,7.54,3.61,7.14,7.78c-0.77,8.09-1.9,16.17-3.38,24.22c-1.95,10.62-4.45,20.34-7.48,29.15
	c8.24-3.61,14.59-7.77,19.07-12.46c4.48-4.7,7.77-10.76,9.86-18.21c1.68-6,2.84-13.52,3.45-22.58c0.26-3.8,3.33-6.8,7.14-6.8h44.14
	c-0.1,1.06-0.24,2.23-0.41,3.5c-0.58,4.33,2.7,8.22,7.07,8.22h39.06c3.95,0,7.15,3.2,7.15,7.15V921.54z"/>
<path d="M990,882.96h66.35c6.93,0,12.55,5.62,12.55,12.55v21.07c0,6.93-5.62,12.55-12.55,12.55h-7.82v10.4h-6.73
	c2.29,3.92,4.7,7.79,7.22,11.61c4.78,7.25,1.17,17.08-7.27,19.11c-1.76,0.42-3.54,0.87-5.36,1.36
	c-8.63,2.31-15.98,10.65-22.04,13.38c-0.13-0.05-0.19-0.07-0.32-0.12c-2.1-4.74-6.78-13.39-11.82-13.21l-111.48,4.09
	c-6.03,0.22-11.42-3.91-12.69-9.82c-0.2-0.92-0.41-1.82-0.63-2.67v0c-2.04-7.93,3.85-15.7,12.04-15.88l5.49-0.12
	c4.04-0.09,7.79-2.12,10.07-5.45l1.56-2.28h-24.49v-10.4h-8.04c-6.93,0-12.55-5.62-12.55-12.55v-21.07
	c0-6.93,5.62-12.55,12.55-12.55h66.35v-7.15H990V882.96z M1062.83,995.47c0,6.93-5.62,12.55-12.55,12.55h-61.8v10.51h66.99
	c6.93,0,12.55-0.56,12.55,6.37v3.95c0,6.93-5.62,12.55-12.55,12.55H875.11c-6.93,0-12.55-5.62-12.55-12.55v-3.95
	c0-6.93,5.62-6.37,12.55-6.37h66.99v-10.51h-61.8c-6.93,0-12.55-5.62-12.55-12.55v-1.35c0-6.93,5.62-6.72,12.55-6.72h61.8
	l-0.11-7.57h46.38l0.11,7.57h61.8c6.93,0,12.55-0.21,12.55,6.72V995.47z M1023.81,916.56l-0.11-8.29H906.67l0.11,8.29H1023.81z
	 M1000.72,948.1l-5.09-8.57h-43.56l-6.63,9.77L1000.72,948.1z"/>
<path d="M863.31,379.71h-72.18c-1.85,0-3.35-1.5-3.35-3.35v-41.7c0-1.85,1.5-3.35,3.35-3.35h72.18c1.85,0,3.35,1.5,3.35,3.35v41.7
	C866.67,378.21,865.17,379.71,863.31,379.71z"/>
<path d="M791.35,540.81l-51.04-51.04c-1.31-1.31-1.31-3.43,0-4.74l29.49-29.49c1.31-1.31,3.43-1.31,4.74,0l51.04,51.04
	c1.31,1.31,1.31,3.43,0,4.74l-29.49,29.49C794.78,542.12,792.66,542.12,791.35,540.81z"/>
<path d="M825.58,204.43l-51.04,51.04c-1.31,1.31-3.43,1.31-4.74,0l-29.49-29.49c-1.31-1.31-1.31-3.43,0-4.74l51.04-51.04
	c1.31-1.31,3.43-1.31,4.74,0l29.49,29.49C826.89,200.99,826.89,203.12,825.58,204.43z"/>
<g>
	<circle cx="244.44" cy="615.72" r="48.51"/>
</g>
<g>
	<circle cx="293.59" cy="755.1" r="48.51"/>
</g>
<g>
	<circle cx="293.59" cy="469.16" r="48.51"/>
</g>
<path d="M710.91,707.97H472.54c-51.7,0-93.76-42.96-93.76-95.77c0-52.8,42.06-95.76,93.76-95.76h130.18v-0.16
	c86.01-1.7,155.5-72.95,155.5-160.45c0-88.55-71.15-160.6-158.6-160.6h-61.99v64.84h61.99c51.7,0,93.76,42.96,93.76,95.76
	c0,52.81-42.06,95.77-93.76,95.77H472.54c-87.45,0-158.6,72.05-158.6,160.6c0,86.4,67.77,156.88,152.28,160.28
	c1.08,0.11,2.12,0.32,3.22,0.32h241.47c17.91,0,32.42-14.51,32.42-32.42S728.81,707.97,710.91,707.97z"/>
<path class="st0" d="M544.66,195.23c-1.2,0-2.34,0.23-3.51,0.35c-1.17-0.13-2.31-0.35-3.51-0.35H361.32
	c-17.91,0-32.42,14.51-32.42,32.42s14.51,32.42,32.42,32.42h150.92v447.9h64.84V227.65C577.08,209.74,562.57,195.23,544.66,195.23z"
	/>
<path class="st0" d="M437.82,355.5v-39.2c21.51,0,39.2,17.7,39.2,39.2c0,21.51-17.7,39.2-39.2,39.2c-0.05,0-0.11,0-0.16,0
	L437.82,355.5z"/>
<path class="st1" d="M438.46,391.05c-19.5,0-35.55-16.05-35.55-35.55c0-19.5,16.05-35.55,35.55-35.55c0.05,0,0.1,0,0.15,0"/>
</svg>
