<svg id="圖層_1" data-name="圖層 1" xmlns="http://www.w3.org/2000/svg" xmlns:xlink="http://www.w3.org/1999/xlink" viewBox="0 0 450.86 288.27"><defs><style>.cls-1,.cls-12,.cls-13,.cls-14{fill:none;}.cls-2{fill:#d7cfb8;}.cls-3{fill:#547277;}.cls-4{fill:#bc996f;}.cls-11,.cls-5{fill:#954823;}.cls-6{clip-path:url(#clip-path);}.cls-7{clip-path:url(#clip-path-2);}.cls-15,.cls-8{fill:#fff;}.cls-9{font-size:48px;fill:#3e3a39;font-family:ArialRoundedMTBold, Arial Rounded MT Bold;}.cls-10{letter-spacing:-0.01em;}.cls-11,.cls-12,.cls-13,.cls-14,.cls-15{stroke:#fff;}.cls-11,.cls-12,.cls-15{stroke-miterlimit:10;}.cls-13,.cls-14{stroke-linejoin:round;}.cls-14{stroke-linecap:round;}</style><clipPath id="clip-path" transform="translate(-67.82 -287.18)"><rect class="cls-1" x="276.85" y="302.88" width="56.07" height="74.29" transform="translate(235.05 -111.3) rotate(33.09)"/></clipPath><clipPath id="clip-path-2" transform="translate(-67.82 -287.18)"><rect class="cls-1" x="229.38" y="273.03" width="56.07" height="74.29" transform="translate(211.06 -90.23) rotate(33.09)"/></clipPath></defs><path class="cls-2" d="M79.54,392h111.1a0,0,0,0,1,0,0v111.1a0,0,0,0,1,0,0h-86.1a25,25,0,0,1-25-25V392A0,0,0,0,1,79.54,392Z" transform="translate(198.39 -288.36) rotate(33.09)"/><path class="cls-3" d="M273.62,471.49,212,431.31,151.31,524.4l72.13,47a25,25,0,0,0,34.6-7.3l26.53-40.73A37.49,37.49,0,0,1,273.62,471.49Z" transform="translate(-67.82 -287.18)"/><path class="cls-4" d="M325.5,460.55,352,419.82a25,25,0,0,0-7.3-34.59l-72.13-47L212,431.31l61.67,40.18A37.5,37.5,0,0,1,325.5,460.55Z" transform="translate(-67.82 -287.18)"/><path class="cls-5" d="M165.19,298.9h86.1a0,0,0,0,1,0,0V410a0,0,0,0,1,0,0H140.19a0,0,0,0,1,0,0V323.9A25,25,0,0,1,165.19,298.9Z" transform="translate(157.41 -336.55) rotate(33.09)"/><g class="cls-6"><path class="cls-4" d="M292.86,307.13A37.49,37.49,0,0,1,303.81,359c-11.31,17.35-74.13-23.58-62.83-40.93A37.5,37.5,0,0,1,292.86,307.13Z" transform="translate(-67.82 -287.18)"/></g><g class="cls-7"><path class="cls-5" d="M292.93,307a37.5,37.5,0,0,1,10.94,51.88c-11.3,17.35-74.12-23.58-62.82-40.93A37.49,37.49,0,0,1,292.93,307Z" transform="translate(-67.82 -287.18)"/></g><circle class="cls-8" cx="88.53" cy="136.19" r="10.67"/><path class="cls-8" d="M145.09,455.79s-1.11,2.87-11.44.34l-.5-.16-7.23-2.59a3.06,3.06,0,0,0-.43-.13c-1.51-.4-9.32-2.11-8.07,4.86a186.93,186.93,0,0,0,8.75,33.78s1.85,5.13-2.64,2.37c-.15-.09-.3-.2-.45-.31-1.73-1.36-13.92-10.22-18.72-23-.08-.22-.15-.46-.25-.68-1-2.21-4-13.83-4-21,0-.3-1.68-12.5,9.1-17.49q.27-.12.54-.21c1.79-.59,10.85-3.12,16.26,4.44a4.57,4.57,0,0,1,.55,1.05,41.24,41.24,0,0,0,5.39,9.79,4.85,4.85,0,0,0,1.33,1.14c1.95,1.14,7.08,4,10.12,4.54l.3,0C144.26,452.71,147.12,453.14,145.09,455.79Z" transform="translate(-67.82 -287.18)"/><path class="cls-8" d="M127.72,454.89s.54,3,11.16,2.54a3.05,3.05,0,0,0,.52-.05l7.6-1.15.44,0c1.56-.1,9.56-.27,7,6.33A186.47,186.47,0,0,1,139.3,494s-2.81,4.67,2.13,2.83a4.52,4.52,0,0,0,.5-.23c2-1,14.89-7.86,22.81-18.89a5,5,0,0,1,.38-.63c1.47-1.62,6.56-12.8,8-19.78.07-.29,4.07-11.93-5.54-18.91a3.74,3.74,0,0,0-.49-.32c-1.65-.93-10-5.15-16.81,1.21a5,5,0,0,0-.75.92,40.73,40.73,0,0,1-7.18,8.57,4.72,4.72,0,0,1-1.53.86c-2.12.74-7.71,2.58-10.8,2.5l-.3,0C129.13,452,126.24,451.9,127.72,454.89Z" transform="translate(-67.82 -287.18)"/><circle class="cls-8" cx="54.16" cy="132.42" r="10.67"/><path class="cls-8" d="M141.11,458.41s-.18-3.58-3.57-3.39c0,0-2.43-.1-2.52,5.52a92.87,92.87,0,0,0,4.69,31.17s.12,3.11-1.81,3.79c0,0-1.57.81-3.06-1.65A75.49,75.49,0,0,1,131.48,481s-1.75-16.57-.67-21.74c0,0-.16-7.24,5.78-8.72,0,0,7.77-2.09,8.85,5.41,0,0,.73,2.5-.33,4.1C145.11,460.05,141.48,463.13,141.11,458.41Z" transform="translate(-67.82 -287.18)"/><rect class="cls-8" x="264.99" y="394.21" width="11.59" height="48.68" transform="translate(-196.06 -167.44) rotate(-20.27)"/><circle class="cls-8" cx="194.54" cy="108.54" r="5.79"/><circle class="cls-8" cx="211.4" cy="154.21" r="5.79"/><rect class="cls-8" x="254.05" y="403.25" width="11.59" height="38.21" transform="translate(-198.05 -170.99) rotate(-20.27)"/><circle class="cls-8" cx="185.56" cy="117.67" r="5.79"/><circle class="cls-8" cx="198.65" cy="153.1" r="5.79"/><rect class="cls-8" x="296.04" y="382.5" width="11.59" height="48.68" transform="translate(658.11 396.74) rotate(159.73)"/><circle class="cls-8" cx="242.45" cy="142.5" r="5.79"/><circle class="cls-8" cx="225.58" cy="96.83" r="5.79"/><rect class="cls-8" x="306.99" y="383.93" width="11.59" height="38.21" transform="translate(678.01 385.58) rotate(159.73)"/><circle class="cls-8" cx="251.43" cy="133.37" r="5.79"/><circle class="cls-8" cx="238.34" cy="97.94" r="5.79"/><rect class="cls-8" x="265.06" y="407.46" width="41.73" height="10.99" transform="translate(-193.18 -162.54) rotate(-20.27)"/><text class="cls-9" transform="translate(125.69 242.75)">N<tspan class="cls-10" x="36.47" y="0">a</tspan><tspan x="64.36" y="0">ps S</tspan><tspan class="cls-10" x="164.39" y="0">y</tspan><tspan x="189.77" y="0">stem</tspan></text><path class="cls-11" d="M208,350.9a33.53,33.53,0,0,0,3.18-2.06s4.72-4.06,7.12.73c0,0-6.26,30.67-36.26,32.93,0,0-3.73-1.28-5.27-6.74" transform="translate(-67.82 -287.18)"/><path class="cls-11" d="M176.26,367.65c.87-8.26,5.16-8.76,7.24-8.63,1.58.09,10.27-1.8,18.28-5.12" transform="translate(-67.82 -287.18)"/><path class="cls-12" d="M212.43,353.24c-4.3,9-14.3,24.81-31,23.3a26,26,0,0,1-4.63-.78" transform="translate(-67.82 -287.18)"/><path class="cls-11" d="M204.12,336.93a42.2,42.2,0,0,1,10.81,10.3" transform="translate(-67.82 -287.18)"/><path class="cls-12" d="M172.38,334.75c5.44-2.71,12.53-4.76,19.8-2.74a17.81,17.81,0,0,1,2.62.58" transform="translate(-67.82 -287.18)"/><path class="cls-11" d="M176.77,375.76a38.26,38.26,0,0,1-15.2-7.69c-5.68-4.74-6.45-11.89-4.88-17.69,1.08-4,3.25-7.32,5.68-8.82a40.32,40.32,0,0,1,4.11-3.27" transform="translate(-67.82 -287.18)"/><path class="cls-12" d="M176.26,367.65a23.19,23.19,0,0,1-8-3.84,22.25,22.25,0,0,1-4.92-3.74,30,30,0,0,1-6.62-9.69" transform="translate(-67.82 -287.18)"/><path class="cls-12" d="M181.37,368.2a16,16,0,0,1-5.11-.55" transform="translate(-67.82 -287.18)"/><path class="cls-12" d="M198.26,341.22a68.8,68.8,0,0,0-6.62-2.65,27.71,27.71,0,0,0-19,4.35,35.27,35.27,0,0,0-9.72,9.58s-2.43,3.5-.35,6.81" transform="translate(-67.82 -287.18)"/><path class="cls-12" d="M208.87,350.38a6.13,6.13,0,0,0-1.74-3.11" transform="translate(-67.82 -287.18)"/><path class="cls-13" d="M208.87,355.2a117.24,117.24,0,0,0-7.38-25.14A44.45,44.45,0,0,0,192.26,317a10.52,10.52,0,0,0-10.72-2.54,31.61,31.61,0,0,0-7.52,3.95,14.39,14.39,0,0,0-5.39,7.07,44.33,44.33,0,0,0-1.34,22.68l5.73-4.53s-1.89-15.92.66-21.28l2.86-3.42" transform="translate(-67.82 -287.18)"/><path class="cls-12" d="M202.57,357.73s-4.14-23.59-13.32-34a13.38,13.38,0,0,0-7.88-4.92s-5.72-.94-10,1.92" transform="translate(-67.82 -287.18)"/><path class="cls-12" d="M189.78,325.72l3.33,5.47s4.57-3.22,8-3.62c0,0,.49.05,0-.62s-3.19-4.48-3.19-4.48-.4-.62-1.6-.17Z" transform="translate(-67.82 -287.18)"/><path class="cls-14" d="M165.21,371.74l5.27,2.79s.44.17,1.05-.6a22.52,22.52,0,0,0,2.28-7.7s-.47-.6-.68-.64-4.38-2.32-4.38-2.32S167.35,371.48,165.21,371.74Z" transform="translate(-67.82 -287.18)"/><path class="cls-11" d="M189.62,384.85s-7.39-1.48-8.22-8.31a2.73,2.73,0,0,1,0-.41V365.07s-.25-4.14,6.59-3.6a12.86,12.86,0,0,0,2.06-.08c3.12-.72,18.87-4.74,23.93-9.3l.12-.11c.56-.53,5.41-4.87,10.5,0,5.41,5.23-27.23,33.18-34.5,32.82" transform="translate(-67.82 -287.18)"/><path class="cls-15" d="M185,367.38c-.65,1.84,1.24,16.85,1.24,16.85a4.62,4.62,0,0,0,.51,1.48c.91,1.76,3.45,4.38,10.33,3.6l.32-.06c2.21-.59,27.58-7.39,32.22-12.65,0,0,3.46-3.46,2.39-11,0,0-.81-7.3-3.13-10.89a2.08,2.08,0,0,0-1-.84c-1.56-.59-6.14-1.2-17.5,3.8l-.15.07c-.62.34-5.84,3-17.66,5.43a2.33,2.33,0,0,1-.38,0C191.18,363.24,186.36,363.57,185,367.38Z" transform="translate(-67.82 -287.18)"/></svg>