<svg id="圖層_2" data-name="圖層 2" xmlns="http://www.w3.org/2000/svg" viewBox="0 0 881.26 902.41"><defs><style>.cls-1,.cls-2{fill:#fff;stroke:#82ab84;}.cls-1,.cls-2,.cls-3,.cls-4,.cls-5{stroke-miterlimit:10;}.cls-1{stroke-width:38px;}.cls-2{stroke-width:15px;}.cls-3,.cls-4,.cls-5{fill:none;}.cls-3{stroke:#48694a;stroke-width:25px;}.cls-4{stroke:#496b4b;stroke-width:22px;}.cls-5{stroke:#314e3a;stroke-width:26px;}.cls-6{fill:#36723b;}</style></defs><circle class="cls-1" cx="408.67" cy="408.67" r="389.67"/><circle class="cls-2" cx="412.4" cy="408.67" r="336.53"/><path class="cls-3" d="M882.42,170.18S860.08,145.61,924.86,130c0,0,58.09-13.4,58.09,0,0,0,11.16,31.28-38,40.21C945,170.18,904.76,190.29,882.42,170.18Z" transform="translate(-115.28 -50.32)"/><path class="cls-3" d="M881.48,151.57l-46,38.72L728.28,623.66H326.19s-69.25,6.7-67-35.74l-53.61-250.2s-8.94-53.61,51.38-40.21L818.27,260" transform="translate(-115.28 -50.32)"/><line class="cls-4" x1="105.97" y1="360.63" x2="676.9" y2="315.09"/><line class="cls-4" x1="129.74" y1="471.57" x2="642.54" y2="453.96"/><line class="cls-4" x1="595.49" y1="216.82" x2="514.72" y2="573.72"/><line class="cls-4" x1="458.87" y1="216.82" x2="438.76" y2="573.72"/><line class="cls-4" x1="322.69" y1="235.08" x2="344.94" y2="573.72"/><line class="cls-4" x1="195.03" y1="243.62" x2="268.99" y2="573.72"/><path class="cls-4" d="M728.28,623.66s40.44.38,29.54,73.72l-469.61,8.93" transform="translate(-115.28 -50.32)"/><circle class="cls-4" cx="216.49" cy="739.76" r="43.56"/><circle class="cls-4" cx="574.09" cy="739.76" r="43.56"/><path class="cls-5" d="M313.82,294.64S194.33,285.05,205.11,337l16.7,77.39,97.93-7.21c9.34-.69,17.81,5,19.92,13.47l44,176.16c3.49,14-8.05,27.26-23.61,27.25-37.83,0-97.74-4.11-97.54-29.89" transform="translate(-115.28 -50.32)"/><line class="cls-5" x1="559.71" y1="453.96" x2="644.41" y2="449.85"/><line class="cls-5" x1="676.9" y1="306.56" x2="608.23" y2="582.99"/><path class="cls-5" d="M594.49,515.12l-26.78-2.57c-9.79-.94-18.56,7.08-19.6,17.91L542.59,588c-1.48,15.44,8.63,29,22.59,30.38l6.71.65a18.48,18.48,0,0,0,20.23-17.88Z" transform="translate(-115.28 -50.32)"/><line class="cls-5" x1="542.29" y1="451.9" x2="514.72" y2="582.57"/><line class="cls-5" x1="292.07" y1="462.76" x2="311.98" y2="582.99"/><path class="cls-5" d="M459.29,550.55s41.93-47,47.42-11.11v93.45" transform="translate(-115.28 -50.32)"/><path class="cls-5" d="M412.9,546.62s20.56-30.41,45.56-12.07l5.09,98.34" transform="translate(-115.28 -50.32)"/><path class="cls-5" d="M596.73,504.28S616.22,624.05,637.58,624" transform="translate(-115.28 -50.32)"/><path class="cls-5" d="M644.16,561.46s11-35.85,66.61-11" transform="translate(-115.28 -50.32)"/><path class="cls-6" d="M126.47,945.39l7.74-9.32c3.63,2.92,8.21,5,12,5,4.11,0,5.85-1.34,5.85-3.63,0-2.45-2.61-3.24-6.95-5l-6.4-2.68c-5.53-2.21-10.35-6.87-10.35-14.3,0-8.76,7.9-16,19.12-16a24.69,24.69,0,0,1,17.06,6.87l-6.79,8.53c-3.48-2.45-6.48-3.71-10.27-3.71-3.32,0-5.37,1.18-5.37,3.47,0,2.45,2.92,3.32,7.58,5.14l6.24,2.45c6.4,2.52,10,7,10,14,0,8.69-7.27,16.43-20.06,16.43A29.75,29.75,0,0,1,126.47,945.39Z" transform="translate(-115.28 -50.32)"/><path class="cls-6" d="M174.17,900.45h13.59v19.11h15.32V900.45h13.58v51.33H203.08V931.41H187.76v20.37H174.17Z" transform="translate(-115.28 -50.32)"/><path class="cls-6" d="M225.82,925.88c0-16.9,9.64-26.38,23.85-26.38s23.86,9.56,23.86,26.38-9.64,26.85-23.86,26.85S225.82,942.78,225.82,925.88Zm33.81,0c0-9.32-3.8-14.69-10-14.69s-9.95,5.37-9.95,14.69S243.51,941,249.67,941,259.63,935.2,259.63,925.88Z" transform="translate(-115.28 -50.32)"/><path class="cls-6" d="M282.69,900.45h18.79c11.22,0,20.85,4.1,20.85,17.06,0,12.55-9.79,18-20.53,18h-5.53v16.27H282.69Zm18.48,24.32c5.37,0,7.9-2.68,7.9-7.26s-3-6.32-8.22-6.32h-4.58v13.58Z" transform="translate(-115.28 -50.32)"/><path class="cls-6" d="M330.7,900.45h18.8c11.22,0,20.85,4.1,20.85,17.06,0,12.55-9.79,18-20.53,18h-5.53v16.27H330.7Zm18.48,24.32c5.38,0,7.9-2.68,7.9-7.26s-3-6.32-8.21-6.32h-4.58v13.58Z" transform="translate(-115.28 -50.32)"/><path class="cls-6" d="M378.72,900.45h13.59v51.33H378.72Z" transform="translate(-115.28 -50.32)"/><path class="cls-6" d="M403.68,900.45h13.9L429,923.35l4.9,11.53h.31c-.63-5.53-1.73-13.27-1.73-19.58V900.45h12.95v51.33h-13.9l-11.37-23-4.9-11.45h-.32c.64,5.84,1.74,13.27,1.74,19.59v14.84H403.68Z" transform="translate(-115.28 -50.32)"/><path class="cls-6" d="M454.54,926.51c0-17.22,11.85-27,25.59-27a23.16,23.16,0,0,1,16.74,6.79L489.76,915c-2.52-2.21-5.05-3.79-9.16-3.79-7,0-12.16,5.53-12.16,14.85,0,9.63,4.27,15,13.43,15a7.63,7.63,0,0,0,3.95-.95V933h-7.59V921.93h19.59v24.48c-3.63,3.48-10.11,6.32-17.37,6.32C466.07,952.73,454.54,944,454.54,926.51Z" transform="translate(-115.28 -50.32)"/><path class="cls-6" d="M523.57,900.45H543c11,0,20.53,3.79,20.53,16.58,0,12.4-9.48,17.54-20.53,17.54h-5.85v17.21H523.57Zm18.48,23.38c5.37,0,8.21-2.37,8.21-6.8s-2.84-5.84-8.21-5.84h-4.9v12.64Zm-1.5,7.18,9.16-9,16.66,29.77H551.21Z" transform="translate(-115.28 -50.32)"/><path class="cls-6" d="M571.11,925.88c0-16.9,9.64-26.38,23.85-26.38s23.85,9.56,23.85,26.38-9.63,26.85-23.85,26.85S571.11,942.78,571.11,925.88Zm33.8,0c0-9.32-3.79-14.69-9.95-14.69s-10,5.37-10,14.69S588.8,941,595,941,604.91,935.2,604.91,925.88Z" transform="translate(-115.28 -50.32)"/><path class="cls-6" d="M628,900.45h18.49c10.74,0,19.42,2.68,19.42,12.79,0,4.43-2.52,9.48-6.47,11.06v.32c4.89,1.42,8.84,5.21,8.84,12,0,10.58-9.16,15.16-20.22,15.16H628Zm18.17,20.06c4.42,0,6.48-2,6.48-5.21s-2.06-4.43-6.48-4.43h-4.58v9.64Zm1,20.85c5.37,0,7.89-1.9,7.89-5.69s-2.52-5.21-7.89-5.21h-5.53v10.9Z" transform="translate(-115.28 -50.32)"/><path class="cls-6" d="M674.1,925.88c0-16.9,9.63-26.38,23.85-26.38s23.85,9.56,23.85,26.38-9.63,26.85-23.85,26.85S674.1,942.78,674.1,925.88Zm33.8,0c0-9.32-3.79-14.69-9.95-14.69s-10,5.37-10,14.69S691.79,941,698,941,707.9,935.2,707.9,925.88Z" transform="translate(-115.28 -50.32)"/><path class="cls-6" d="M738.38,911.82H724.8V900.45h40.75v11.37H752v40H738.38Z" transform="translate(-115.28 -50.32)"/><path class="cls-6" d="M786.72,926.51c0-17.22,11.85-27,25.59-27a23.16,23.16,0,0,1,16.74,6.79L821.94,915c-2.52-2.21-5.05-3.79-9.16-3.79-6.95,0-12.16,5.53-12.16,14.85,0,9.63,4.26,15,13.42,15a7.58,7.58,0,0,0,4-.95V933h-7.58V921.93H830v24.48c-3.63,3.48-10.11,6.32-17.38,6.32C798.25,952.73,786.72,944,786.72,926.51Z" transform="translate(-115.28 -50.32)"/><path class="cls-6" d="M848.32,900.45h16.43l15.64,51.33H866l-5.84-24.95c-1.26-4.9-2.53-11.14-3.79-16.27h-.32c-1.1,5.21-2.37,11.37-3.63,16.27l-5.85,24.95h-13.9Zm-4.42,29.93H869v10.5H843.9Z" transform="translate(-115.28 -50.32)"/><path class="cls-6" d="M884.49,900.45H899l7.74,21c.94,2.84,1.73,6,2.68,9h.32c1-3,1.73-6.16,2.68-9l7.43-21h14.53v51.33H922.09V936.62c0-5.21,1.1-13.19,1.74-18.32h-.32l-4.26,12.32-6.32,17h-7.27l-6.32-17-4.1-12.32h-.32c.63,5.13,1.74,13.11,1.74,18.32v15.16H884.49Z" transform="translate(-115.28 -50.32)"/><path class="cls-6" d="M945.78,900.45H979v11.37H959.36v8.06h16.75v11.37H959.36v9.16h20.38v11.37h-34Z" transform="translate(-115.28 -50.32)"/></svg>